<svg width="100%" height="100%" id="svg" viewBox="0 0 1440 600" xmlns="http://www.w3.org/2000/svg" class="transition duration-300 ease-in-out delay-150"><defs><linearGradient id="gradient" x1="0%" y1="50%" x2="100%" y2="50%"><stop offset="5%" stop-color="#002bdc66"></stop><stop offset="95%" stop-color="#32ded466"></stop></linearGradient></defs><path d="M 0,600 C 0,600 0,150 0,150 C 100.27179487179487,162.4923076923077 200.54358974358973,174.98461538461538 275,192 C 349.45641025641027,209.01538461538462 398.09743589743584,230.5538461538462 474,204 C 549.9025641025642,177.4461538461538 653.0666666666668,102.80000000000001 737,106 C 820.9333333333332,109.19999999999999 885.6358974358975,190.24615384615382 964,202 C 1042.3641025641025,213.75384615384618 1134.3897435897434,156.2153846153846 1216,136 C 1297.6102564102566,115.78461538461538 1368.8051282051283,132.8923076923077 1440,150 C 1440,150 1440,600 1440,600 Z" stroke="none" stroke-width="0" fill="url(#gradient)" class="transition-all duration-300 ease-in-out delay-150 path-0"></path><defs><linearGradient id="gradient" x1="0%" y1="50%" x2="100%" y2="50%"><stop offset="5%" stop-color="#002bdc88"></stop><stop offset="95%" stop-color="#32ded488"></stop></linearGradient></defs><path d="M 0,600 C 0,600 0,300 0,300 C 100.37692307692308,309.02564102564105 200.75384615384615,318.0512820512821 277,330 C 353.24615384615385,341.9487179487179 405.36153846153843,356.8205128205128 485,338 C 564.6384615384616,319.1794871794872 671.8000000000002,266.66666666666663 756,268 C 840.1999999999998,269.33333333333337 901.4384615384615,324.51282051282055 973,344 C 1044.5615384615385,363.48717948717945 1126.4461538461537,347.28205128205127 1206,334 C 1285.5538461538463,320.71794871794873 1362.7769230769231,310.35897435897436 1440,300 C 1440,300 1440,600 1440,600 Z" stroke="none" stroke-width="0" fill="url(#gradient)" class="transition-all duration-300 ease-in-out delay-150 path-1"></path><defs><linearGradient id="gradient" x1="0%" y1="50%" x2="100%" y2="50%"><stop offset="5%" stop-color="#002bdcff"></stop><stop offset="95%" stop-color="#32ded4ff"></stop></linearGradient></defs><path d="M 0,600 C 0,600 0,450 0,450 C 66.24615384615385,452.5974358974359 132.4923076923077,455.1948717948718 216,458 C 299.5076923076923,460.8051282051282 400.276923076923,463.81794871794875 488,468 C 575.723076923077,472.18205128205125 650.4000000000001,477.5333333333333 729,483 C 807.5999999999999,488.4666666666667 890.1230769230767,494.048717948718 960,495 C 1029.8769230769233,495.951282051282 1087.1076923076923,492.27179487179484 1165,484 C 1242.8923076923077,475.72820512820516 1341.4461538461537,462.8641025641026 1440,450 C 1440,450 1440,600 1440,600 Z" stroke="none" stroke-width="0" fill="url(#gradient)" class="transition-all duration-300 ease-in-out delay-150 path-2"></path></svg>