<svg width="100%" height="100%" id="svg" viewBox="0 0 1440 700" xmlns="http://www.w3.org/2000/svg" class="transition duration-300 ease-in-out delay-150"><defs><linearGradient id="gradient" x1="0%" y1="50%" x2="100%" y2="50%"><stop offset="5%" stop-color="#ff690088"></stop><stop offset="95%" stop-color="#32ded488"></stop></linearGradient></defs><path d="M 0,700 C 0,700 0,233 0,233 C 52.85384615384615,189.7846153846154 105.7076923076923,146.56923076923076 199,153 C 292.2923076923077,159.43076923076924 426.0230769230769,215.5076923076923 507,219 C 587.9769230769231,222.4923076923077 616.1999999999999,173.4 681,161 C 745.8000000000001,148.6 847.176923076923,172.8923076923077 947,175 C 1046.823076923077,177.1076923076923 1145.092307692308,157.03076923076924 1227,163 C 1308.907692307692,168.96923076923076 1374.453846153846,200.98461538461538 1440,233 C 1440,233 1440,700 1440,700 Z" stroke="none" stroke-width="0" fill="url(#gradient)" class="transition-all duration-300 ease-in-out delay-150 path-0"></path><defs><linearGradient id="gradient" x1="0%" y1="50%" x2="100%" y2="50%"><stop offset="5%" stop-color="#ff6900ff"></stop><stop offset="95%" stop-color="#32ded4ff"></stop></linearGradient></defs><path d="M 0,700 C 0,700 0,466 0,466 C 76.21794871794873,478.5333333333333 152.43589743589746,491.06666666666666 224,463 C 295.56410256410254,434.93333333333334 362.474358974359,366.2666666666666 455,386 C 547.525641025641,405.7333333333334 665.6666666666665,513.8666666666668 745,552 C 824.3333333333335,590.1333333333332 864.8589743589744,558.2666666666667 947,513 C 1029.1410256410256,467.73333333333335 1152.897435897436,409.06666666666666 1242,399 C 1331.102564102564,388.93333333333334 1385.551282051282,427.4666666666667 1440,466 C 1440,466 1440,700 1440,700 Z" stroke="none" stroke-width="0" fill="url(#gradient)" class="transition-all duration-300 ease-in-out delay-150 path-1"></path></svg>